<?xml version="1.0" standalone="no"?>
<!DOCTYPE svg PUBLIC "-//W3C//DTD SVG 20010904//EN"
 "http://www.w3.org/TR/2001/REC-SVG-20010904/DTD/svg10.dtd">
<svg version="1.0" xmlns="http://www.w3.org/2000/svg"
 width="296.000000pt" height="290.000000pt" viewBox="0 0 296.000000 290.000000"
 preserveAspectRatio="xMidYMid meet">

<g transform="translate(0.000000,290.000000) scale(0.100000,-0.100000)"
fill="#942222ff" stroke="none">
<path d="M1310 2769 c-436 -54 -816 -324 -1015 -720 -96 -193 -135 -362 -135
-589 0 -218 38 -390 124 -567 48 -98 63 -118 40 -56 -23 67 -18 234 12 348 63
243 140 357 384 568 88 77 125 100 235 153 177 84 256 110 419 135 161 25 391
23 511 -4 39 -9 108 -23 155 -32 79 -14 163 -42 300 -99 30 -13 76 -31 101
-40 25 -9 70 -31 100 -49 30 -17 77 -43 104 -56 28 -14 65 -36 83 -49 18 -14
34 -23 36 -21 5 6 -38 170 -58 222 -16 43 -20 46 -139 102 -120 57 -269 115
-357 140 -25 7 -56 17 -70 23 -14 5 -88 22 -165 37 -125 26 -162 29 -350 29
-270 1 -376 -17 -611 -103 -60 -23 -113 -41 -119 -41 -5 0 -46 -23 -90 -50
-80 -50 -95 -57 -95 -42 0 14 185 134 276 180 88 44 316 118 424 137 123 22
346 34 435 24 39 -5 122 -13 185 -19 128 -12 366 -60 449 -91 29 -11 56 -18
58 -16 8 9 -119 157 -180 211 -61 53 -65 55 -172 76 -176 34 -472 45 -670 25
-88 -9 -185 -23 -215 -31 -31 -7 -76 -18 -100 -23 -138 -28 -431 -163 -572
-264 -47 -34 -120 -95 -162 -135 -152 -148 -89 -28 71 133 74 76 224 181 340
240 77 38 222 93 333 124 187 53 522 74 773 47 64 -6 117 -11 117 -9 0 1 -22
14 -48 27 -74 38 -242 93 -334 111 -103 20 -309 27 -408 14z"/>
<path d="M1370 1855 c-144 -19 -206 -33 -314 -71 -238 -84 -429 -253 -524
-465 -39 -87 -72 -231 -72 -315 0 -72 31 -200 68 -287 90 -204 325 -376 570
-417 103 -17 250 0 361 42 69 26 96 43 147 93 63 60 87 106 65 128 -8 8 -37
-2 -108 -36 -268 -128 -539 -60 -708 178 -55 77 -69 127 -68 250 1 105 11 156
31 163 8 2 12 -14 12 -57 0 -92 22 -84 93 34 39 66 89 117 157 161 77 51 142
76 185 72 l40 -4 -30 -12 c-97 -40 -151 -82 -196 -151 -32 -49 -37 -88 -14
-97 9 -4 44 12 81 37 68 44 176 79 244 79 19 0 71 -8 115 -18 215 -48 420
-256 444 -451 11 -83 -1 -145 -42 -232 -56 -117 -259 -266 -412 -304 -117 -29
-111 -37 25 -30 156 8 252 26 382 71 164 57 278 123 420 240 159 133 296 327
378 533 24 63 70 236 70 268 0 16 -34 50 -122 123 -68 56 -141 111 -163 122
-22 11 -42 24 -45 28 -3 4 -48 33 -100 63 -52 30 -115 68 -140 83 -62 38 -134
69 -280 120 -106 36 -148 45 -276 59 -83 8 -157 14 -165 14 -8 -1 -57 -7 -109
-14z"/>
</g>
</svg>
